<?xml version="1.0" standalone="no"?>
<!DOCTYPE svg PUBLIC "-//W3C//DTD SVG 20010904//EN"
 "http://www.w3.org/TR/2001/REC-SVG-20010904/DTD/svg10.dtd">
<svg version="1.0" xmlns="http://www.w3.org/2000/svg"
 width="500.000000pt" height="500.000000pt" viewBox="0 0 500.000000 500.000000"
 preserveAspectRatio="xMidYMid meet">
<metadata>
Created by potrace 1.11, written by Peter Selinger 2001-2013
</metadata>
<g transform="translate(0.000000,500.000000) scale(0.100000,-0.100000)"
fill="#000000" stroke="none">
<path d="M736 4263 c-22 -36 -448 -680 -644 -976 -68 -103 -92 -146 -92 -170
0 -29 23 -55 221 -247 122 -118 266 -258 319 -310 54 -52 176 -171 272 -265
96 -93 307 -298 468 -455 161 -157 323 -314 360 -350 37 -36 197 -192 356
-347 504 -490 462 -453 508 -453 39 1 48 7 222 178 200 196 713 695 833 811
42 40 206 200 365 355 159 154 330 321 380 370 301 293 623 606 657 639 69 68
70 64 -186 452 -123 187 -230 348 -237 357 -7 10 -76 114 -153 232 l-140 215
-1742 1 -1743 0 -24 -37z m344 -152 c23 -2 23 -3 -10 -20 -55 -27 -271 -142
-308 -163 -41 -23 -41 -22 33 90 55 83 63 91 95 94 32 3 125 2 190 -1z m536
-92 l94 -94 -23 -21 c-12 -12 -206 -160 -432 -329 -225 -170 -423 -319 -438
-332 -16 -13 -32 -23 -36 -23 -4 0 -14 39 -21 88 -7 48 -14 96 -16 107 -6 28
-12 64 -18 105 -3 19 -12 78 -21 130 -22 139 -24 130 53 170 37 19 101 53 142
76 112 61 235 126 330 175 85 44 85 44 188 43 l103 -1 95 -94z m486 90 c-4 -4
-74 -36 -157 -72 l-150 -66 -67 67 c-38 36 -68 69 -68 72 0 3 101 5 224 5 124
0 222 -3 218 -6z m878 -100 c138 -60 239 -109 238 -116 -2 -6 -154 -165 -338
-353 l-334 -341 -154 158 c-84 87 -237 243 -339 346 -192 195 -198 206 -140
221 13 3 45 15 73 28 27 12 122 54 212 92 l162 71 191 -1 190 -1 239 -104z
m451 102 c3 -1 -25 -32 -62 -71 l-68 -69 -93 40 c-51 22 -111 48 -133 58 -22
10 -50 22 -62 25 -13 4 -23 10 -23 14 0 5 407 8 441 3z m314 -3 c10 -6 109
-58 355 -186 232 -121 245 -129 243 -149 -2 -24 -58 -386 -68 -443 -8 -49 -17
-105 -18 -117 0 -7 -3 -13 -6 -13 -5 0 -121 94 -201 163 -14 12 -63 53 -110
92 -47 38 -90 74 -96 80 -6 5 -30 26 -54 45 -46 36 -107 88 -126 105 -6 6 -30
26 -54 45 -130 104 -220 183 -220 191 0 5 39 49 88 98 77 79 92 90 127 93 59
5 129 3 140 -4z m396 3 c5 -1 31 -37 94 -134 l18 -28 -29 13 c-16 6 -34 15
-39 19 -6 4 -63 35 -127 68 -106 54 -114 60 -85 63 25 2 135 1 168 -1z m-2193
-433 c83 -84 227 -232 321 -328 l170 -175 -234 -3 c-128 -1 -341 -1 -473 0
l-239 3 35 75 c84 181 132 285 197 428 38 83 70 152 71 152 1 0 69 -69 152
-152z m1386 76 c20 -42 36 -77 36 -80 0 -2 21 -47 46 -101 59 -126 87 -186
140 -303 l43 -95 -240 -3 c-132 -1 -345 -1 -474 0 l-233 3 321 328 c176 180
322 327 323 327 2 0 19 -34 38 -76z m-1688 -26 c-14 -32 -118 -259 -178 -388
-17 -36 -41 -89 -54 -117 l-24 -53 -257 0 c-231 1 -256 2 -238 16 11 8 27 20
35 27 9 6 153 115 320 242 168 126 327 246 353 267 27 21 51 38 53 38 2 0 -2
-15 -10 -32z m1888 -55 c44 -37 86 -72 92 -78 29 -26 76 -65 144 -120 41 -33
80 -65 85 -71 6 -6 70 -59 143 -119 72 -59 132 -109 132 -111 0 -2 -96 -4
-214 -4 l-213 0 -86 188 c-47 103 -100 218 -117 257 -18 38 -38 82 -46 97 -8
16 -12 28 -8 28 3 0 43 -30 88 -67z m-2924 4 c0 -12 9 -74 19 -137 11 -63 22
-133 25 -155 4 -22 12 -78 20 -125 8 -47 13 -86 11 -88 -1 -1 -102 -1 -224 0
l-223 3 177 267 c98 147 181 265 186 262 5 -3 9 -15 9 -27z m3871 -70 c25 -39
101 -154 167 -255 l122 -182 -212 2 -213 3 3 25 c2 14 5 36 8 50 2 14 11 70
20 125 8 55 17 111 20 125 2 14 9 60 16 103 6 42 14 77 17 77 3 0 27 -33 52
-73z m-3648 -812 c124 -292 147 -345 178 -407 10 -21 16 -38 14 -38 -7 0 -745
717 -745 724 0 1 98 2 217 2 l217 -1 119 -280z m618 75 c37 -113 85 -260 107
-327 l40 -123 -27 21 c-14 11 -68 60 -120 107 -130 119 -133 122 -211 192 -80
72 -88 79 -207 187 -50 46 -105 95 -122 110 -17 15 -31 30 -31 33 0 4 113 6
252 6 l251 -1 68 -205z m967 172 c-18 -19 -58 -60 -88 -92 -30 -32 -156 -162
-280 -290 -124 -128 -246 -255 -272 -283 -26 -28 -49 -49 -51 -47 -7 8 -244
735 -241 740 1 3 219 5 483 6 l481 0 -32 -34z m1186 13 c-12 -42 -237 -730
-240 -737 -2 -3 -30 21 -62 55 -84 90 -370 393 -427 453 -71 74 -220 237 -223
243 -1 4 214 7 478 7 475 -1 480 -1 474 -21z m536 16 c0 -3 -147 -154 -325
-336 -296 -300 -324 -326 -309 -285 9 25 17 50 18 55 1 6 41 130 89 276 48
147 87 271 87 277 0 6 8 12 17 14 32 6 423 5 423 -1z m468 -114 c-67 -65 -206
-200 -308 -299 -102 -99 -207 -201 -233 -226 -54 -52 -54 -54 6 83 19 44 79
186 133 315 54 129 102 238 106 241 4 3 101 5 214 5 l206 0 -124 -119z m-1778
-217 c74 -79 152 -162 173 -184 21 -23 91 -97 155 -165 65 -69 125 -132 135
-140 9 -9 17 -22 17 -30 0 -8 -25 -57 -55 -108 -30 -52 -55 -98 -55 -104 0 -5
-4 -9 -10 -9 -5 0 -10 -4 -10 -9 0 -5 -39 -76 -86 -158 -48 -81 -96 -164 -106
-183 -19 -34 -100 -172 -276 -475 -58 -101 -99 -158 -145 -203 l-63 -63 -62
58 c-66 63 -37 10 -387 698 -87 171 -187 365 -222 433 -34 68 -63 126 -63 130
0 7 70 81 396 419 111 114 241 250 290 301 l89 92 75 -78 c41 -43 136 -143
210 -222z m-1936 188 c13 -13 153 -139 186 -168 9 -8 59 -53 110 -100 51 -47
102 -93 114 -103 47 -41 277 -251 331 -302 18 -17 56 -78 85 -135 49 -99 313
-618 406 -797 23 -46 40 -83 38 -83 -2 0 -44 39 -93 88 -80 79 -345 336 -739
718 -80 78 -146 148 -148 156 -1 8 -72 177 -157 376 -85 199 -153 362 -150
362 2 0 10 -6 17 -12z m3245 -19 c-6 -13 -73 -172 -149 -354 -124 -296 -143
-335 -183 -375 -49 -50 -615 -602 -717 -700 -36 -34 -98 -94 -138 -133 l-74
-72 113 195 c61 107 167 290 234 405 67 116 136 235 153 265 19 33 89 113 177
200 80 80 245 247 368 372 122 125 223 226 224 224 2 -1 -2 -13 -8 -27z"/>
</g>
</svg>
